<svg xmlns="http://www.w3.org/2000/svg" viewBox="-188 -158 440.32 525.5" role="img" aria-label="نمای فنی انفجاری کابینت با ابعاد">
  <defs>
    <marker id="arw" markerWidth="8" markerHeight="8" refX="4" refY="4" orient="auto">
      <path d="M1,1 L6,4 L1,7" fill="none" stroke="#e3c486" stroke-width="1.2" stroke-linecap="round" stroke-linejoin="round"/>
    </marker>
  </defs>
  <polygon points="114.32,66 43.3,107 43.3,41 114.32,0" fill="rgba(10,8,6,.45)" stroke="#d6b06a" stroke-width="1.6" stroke-linejoin="round" />
  <polygon points="43.3,107 -71.01,41 -71.01,-25 43.3,41" fill="rgba(205,162,87,.07)" stroke="#d6b06a" stroke-width="1.6" stroke-linejoin="round" />
  <polygon points="0,-66 114.32,0 43.3,41 -71.01,-25" fill="rgba(205,162,87,.14)" stroke="#e3c486" stroke-width="1.6" stroke-linejoin="round" />
  <line x1="-71.01" y1="19" x2="43.3" y2="85" stroke="#d6b06a" stroke-width="1.2"  stroke-linecap="round"/>
  <line x1="43.3" y1="85" x2="114.32" y2="44" stroke="#d6b06a" stroke-width="1.2"  stroke-linecap="round"/>
  <line x1="43.3" y1="85" x2="43.3" y2="85" stroke="#d6b06a" stroke-width="1.2"  stroke-linecap="round"/>
  <line x1="-71.01" y1="-3" x2="43.3" y2="63" stroke="#d6b06a" stroke-width="1.2"  stroke-linecap="round"/>
  <line x1="43.3" y1="63" x2="114.32" y2="22" stroke="#d6b06a" stroke-width="1.2"  stroke-linecap="round"/>
  <line x1="43.3" y1="63" x2="43.3" y2="63" stroke="#d6b06a" stroke-width="1.2"  stroke-linecap="round"/>
  <line x1="-13.86" y1="74" x2="-13.86" y2="8" stroke="#d6b06a" stroke-width="1.1" stroke-dasharray="4 4" stroke-linecap="round"/>
  <polygon points="122.98,-26 43.3,20 43.3,13 122.98,-33" fill="rgba(10,8,6,.45)" stroke="#d6b06a" stroke-width="1.6" stroke-linejoin="round" />
  <polygon points="43.3,20 -79.67,-51 -79.67,-58 43.3,13" fill="rgba(205,162,87,.1)" stroke="#d6b06a" stroke-width="1.6" stroke-linejoin="round" />
  <polygon points="0,-104 122.98,-33 43.3,13 -79.67,-58" fill="rgba(205,162,87,.2)" stroke="#e3c486" stroke-width="1.6" stroke-linejoin="round" />
  <polygon points="32.04,124.5 14.72,134.5 14.72,120.5 32.04,110.5" fill="rgba(10,8,6,.45)" stroke="#d6b06a" stroke-width="1.6" stroke-linejoin="round" />
  <polygon points="14.72,134.5 -84,77.5 -84,63.5 14.72,120.5" fill="rgba(205,162,87,.09)" stroke="#d6b06a" stroke-width="1.6" stroke-linejoin="round" />
  <polygon points="-66.68,53.5 32.04,110.5 14.72,120.5 -84,63.5" fill="rgba(205,162,87,.16)" stroke="#e3c486" stroke-width="1.6" stroke-linejoin="round" />
  <polygon points="19.92,151.5 2.6,161.5 2.6,147.5 19.92,137.5" fill="rgba(10,8,6,.45)" stroke="#d6b06a" stroke-width="1.6" stroke-linejoin="round" />
  <polygon points="2.6,161.5 -96.13,104.5 -96.13,90.5 2.6,147.5" fill="rgba(205,162,87,.09)" stroke="#d6b06a" stroke-width="1.6" stroke-linejoin="round" />
  <polygon points="-78.81,80.5 19.92,137.5 2.6,147.5 -96.13,90.5" fill="rgba(205,162,87,.16)" stroke="#e3c486" stroke-width="1.6" stroke-linejoin="round" />
  <line x1="-50.44" y1="90.88" x2="-18.84" y2="109.12" stroke="#e3c486" stroke-width="2"  stroke-linecap="round"/>
  <line x1="-62.56" y1="117.88" x2="-30.97" y2="136.12" stroke="#e3c486" stroke-width="2"  stroke-linecap="round"/>
  <line x1="0" y1="-104" x2="0" y2="-134" stroke="#e3c486" stroke-width="0.9" stroke-dasharray="3 3" stroke-linecap="round"/>
  <line x1="122.98" y1="-33" x2="122.98" y2="-63" stroke="#e3c486" stroke-width="0.9" stroke-dasharray="3 3" stroke-linecap="round"/>
  <line x1="0" y1="-134" x2="122.98" y2="-63" stroke="#e3c486" stroke-width="1.3" marker-start="url(#arw)" marker-end="url(#arw)"/>
  <text x="61.49" y="-105.5" fill="#efe7da" font-family="Vazirmatn, system-ui, sans-serif" font-size="13" font-weight="700" text-anchor="middle" letter-spacing="1">۹۰۰</text>
  <line x1="122.98" y1="-33" x2="174.98" y2="-63" stroke="#e3c486" stroke-width="0.9" stroke-dasharray="3 3" stroke-linecap="round"/>
  <line x1="43.3" y1="13" x2="95.3" y2="-17" stroke="#e3c486" stroke-width="0.9" stroke-dasharray="3 3" stroke-linecap="round"/>
  <line x1="174.98" y1="-63" x2="95.3" y2="-17" stroke="#e3c486" stroke-width="1.3" marker-start="url(#arw)" marker-end="url(#arw)"/>
  <text x="135.14" y="-47" fill="#efe7da" font-family="Vazirmatn, system-ui, sans-serif" font-size="13" font-weight="700" text-anchor="middle" letter-spacing="1">۵۶۰</text>
  <line x1="114.32" y1="66" x2="192.32" y2="66" stroke="#e3c486" stroke-width="0.9" stroke-dasharray="3 3" stroke-linecap="round"/>
  <line x1="114.32" y1="0" x2="192.32" y2="0" stroke="#e3c486" stroke-width="0.9" stroke-dasharray="3 3" stroke-linecap="round"/>
  <line x1="192.32" y1="66" x2="192.32" y2="0" stroke="#e3c486" stroke-width="1.3" marker-start="url(#arw)" marker-end="url(#arw)"/>
  <text x="210.32" y="37" fill="#efe7da" font-family="Vazirmatn, system-ui, sans-serif" font-size="13" font-weight="700" text-anchor="middle" letter-spacing="1">۷۲۰</text>
  <line x1="-138" y1="-60" x2="61.49" y2="-65" stroke="rgba(214,176,106,.5)" stroke-width="0.9"  stroke-linecap="round"/>
  <circle cx="-150" cy="-60" r="12" fill="rgba(12,10,8,.6)" stroke="#cda257" stroke-width="1.4"/>
  <text x="-150" y="-56" fill="#e3c486" font-family="Vazirmatn, system-ui, sans-serif" font-size="11" font-weight="700" text-anchor="middle">۰۱</text>
  <line x1="-138" y1="-18" x2="-71.01" y2="-3" stroke="rgba(214,176,106,.5)" stroke-width="0.9"  stroke-linecap="round"/>
  <circle cx="-150" cy="-18" r="12" fill="rgba(12,10,8,.6)" stroke="#cda257" stroke-width="1.4"/>
  <text x="-150" y="-14" fill="#e3c486" font-family="Vazirmatn, system-ui, sans-serif" font-size="11" font-weight="700" text-anchor="middle">۰۲</text>
  <line x1="-138" y1="24" x2="-71.01" y2="19" stroke="rgba(214,176,106,.5)" stroke-width="0.9"  stroke-linecap="round"/>
  <circle cx="-150" cy="24" r="12" fill="rgba(12,10,8,.6)" stroke="#cda257" stroke-width="1.4"/>
  <text x="-150" y="28" fill="#e3c486" font-family="Vazirmatn, system-ui, sans-serif" font-size="11" font-weight="700" text-anchor="middle">۰۳</text>
  <line x1="-138" y1="66" x2="-78.81" y2="87.5" stroke="rgba(214,176,106,.5)" stroke-width="0.9"  stroke-linecap="round"/>
  <circle cx="-150" cy="66" r="12" fill="rgba(12,10,8,.6)" stroke="#cda257" stroke-width="1.4"/>
  <text x="-150" y="70" fill="#e3c486" font-family="Vazirmatn, system-ui, sans-serif" font-size="11" font-weight="700" text-anchor="middle">۰۴</text>
  <rect x="-150" y="207.5" width="120" height="96" fill="none" stroke="#d6b06a" stroke-width="1.5"/>
<line x1="-150" y1="240.14" x2="-30" y2="240.14" stroke="#d6b06a" stroke-width="1"/>
<line x1="-150" y1="270.86" x2="-30" y2="270.86" stroke="#d6b06a" stroke-width="1"/>
<line x1="-90" y1="207.5" x2="-90" y2="303.5" stroke="#d6b06a" stroke-width="1" stroke-dasharray="4 4"/>
<line x1="-150" y1="319.5" x2="-30" y2="319.5" stroke="#e3c486" stroke-width="1.2" marker-start="url(#arw)" marker-end="url(#arw)"/>
<text x="-90" y="335.5" fill="#efe7da" font-family="Vazirmatn, system-ui, sans-serif" font-size="12" font-weight="700" text-anchor="middle">۹۰۰</text>
<line x1="-14" y1="207.5" x2="-14" y2="303.5" stroke="#e3c486" stroke-width="1.2" marker-start="url(#arw)" marker-end="url(#arw)"/>
<text x="0" y="259.5" fill="#efe7da" font-family="Vazirmatn, system-ui, sans-serif" font-size="12" font-weight="700" text-anchor="middle">۷۲۰</text>
  <rect x="46" y="207.5" width="78" height="96" fill="none" stroke="#d6b06a" stroke-width="1.5"/>
<line x1="46" y1="240.14" x2="124" y2="240.14" stroke="#d6b06a" stroke-width="1"/>
<line x1="46" y1="270.86" x2="124" y2="270.86" stroke="#d6b06a" stroke-width="1"/>
<line x1="46" y1="319.5" x2="124" y2="319.5" stroke="#e3c486" stroke-width="1.2" marker-start="url(#arw)" marker-end="url(#arw)"/>
<text x="85" y="335.5" fill="#efe7da" font-family="Vazirmatn, system-ui, sans-serif" font-size="12" font-weight="700" text-anchor="middle">۵۶۰</text>
<line x1="140" y1="207.5" x2="140" y2="303.5" stroke="#e3c486" stroke-width="1.2" marker-start="url(#arw)" marker-end="url(#arw)"/>
<text x="154" y="259.5" fill="#efe7da" font-family="Vazirmatn, system-ui, sans-serif" font-size="12" font-weight="700" text-anchor="middle">۷۲۰</text>
</svg>
